<svg width="25" height="25" viewBox="0 0 25 25" fill="none" xmlns="http://www.w3.org/2000/svg">
<path d="M12.5 0C5.6 0 0 5.6 0 12.5C0 19.4 5.6 25 12.5 25C19.4 25 25 19.4 25 12.5C25 5.6 19.4 0 12.5 0ZM16.9125 15.5875C17.275 15.95 17.275 16.55 16.9125 16.9125C16.725 17.1 16.4875 17.1875 16.25 17.1875C16.0125 17.1875 15.775 17.1 15.5875 16.9125L12.5 13.825L9.4125 16.9125C9.225 17.1 8.9875 17.1875 8.75 17.1875C8.5125 17.1875 8.275 17.1 8.0875 16.9125C7.725 16.55 7.725 15.95 8.0875 15.5875L11.175 12.5L8.0875 9.41254C7.725 9.05004 7.725 8.44996 8.0875 8.08746C8.45 7.72496 9.05 7.72496 9.4125 8.08746L12.5 11.175L15.5875 8.08746C15.95 7.72496 16.55 7.72496 16.9125 8.08746C17.275 8.44996 17.275 9.05004 16.9125 9.41254L13.825 12.5L16.9125 15.5875Z" fill="#E93434"/>
</svg>
