<svg width="25" height="25" viewBox="0 0 25 25" fill="none" xmlns="http://www.w3.org/2000/svg">
<path d="M12.5 0C5.59625 0 0 5.59625 0 12.5C0 19.4037 5.59625 25 12.5 25C19.4037 25 25 19.4037 25 12.5C25 5.59625 19.4037 0 12.5 0ZM13.4375 18.125C13.4375 18.6425 13.0175 19.0625 12.5 19.0625C11.9825 19.0625 11.5625 18.6425 11.5625 18.125V12.4112C11.5625 11.8937 11.9825 11.4737 12.5 11.4737C13.0175 11.4737 13.4375 11.8937 13.4375 12.4112V18.125ZM12.525 9.375C11.835 9.375 11.2686 8.815 11.2686 8.125C11.2686 7.435 11.8225 6.875 12.5125 6.875H12.525C13.2163 6.875 13.775 7.435 13.775 8.125C13.775 8.815 13.215 9.375 12.525 9.375Z" fill="#3AB4E8"/>
</svg>
