<svg width="25" height="25" viewBox="0 0 25 25" fill="none" xmlns="http://www.w3.org/2000/svg">
<path d="M20.7292 20.2293C20.7824 20.5449 20.5386 20.8334 20.2188 20.8334H4.78132C4.46049 20.8334 4.21669 20.5449 4.27085 20.2293L4.69588 17.7084C4.72088 17.5584 4.8511 17.448 5.00423 17.448H19.9969C20.149 17.448 20.2792 17.5584 20.3052 17.7084L20.7292 20.2293ZM20.3021 7.84386L17.698 9.41678C17.2271 9.70116 16.6156 9.56364 16.3125 9.10426L13.3552 4.62616C12.9511 4.01366 12.0521 4.01261 11.6459 4.62511L8.68757 9.09387C8.38549 9.56262 7.77088 9.69802 7.29171 9.40636L4.69797 7.84386C3.92714 7.37511 2.96882 8.04178 3.1459 8.9272L4.65315 15.6418C4.68544 15.7845 4.81151 15.8855 4.95839 15.8855H20.0417C20.1875 15.8855 20.3146 15.7845 20.3469 15.6418L21.8542 8.9272C22.0313 8.04178 21.073 7.37511 20.3021 7.84386Z" fill="#25314C"/>
</svg>
