<svg width="26" height="26" viewBox="0 0 26 26" fill="none" xmlns="http://www.w3.org/2000/svg">
<path d="M13 0.5C6.1 0.5 0.5 6.1 0.5 13C0.5 19.9 6.1 25.5 13 25.5C19.9 25.5 25.5 19.9 25.5 13C25.5 6.1 19.9 0.5 13 0.5ZM18.0375 10.75L12.2 16.575C12.025 16.7625 11.7875 16.85 11.5375 16.85C11.3 16.85 11.0625 16.7625 10.875 16.575L7.9625 13.6625C7.6 13.3 7.6 12.7 7.9625 12.3375C8.325 11.975 8.925 11.975 9.2875 12.3375L11.5375 14.5875L16.7125 9.42502C17.075 9.05002 17.675 9.05002 18.0375 9.42502C18.4 9.78752 18.4 10.375 18.0375 10.75Z" fill="#00CF08"/>
</svg>
