<svg width="21" height="20" viewBox="0 0 21 20" fill="none" xmlns="http://www.w3.org/2000/svg">
<path d="M20.5072 14.8669L13.625 1.99582C12.2917 -0.497926 8.70937 -0.497926 7.37499 1.99582L0.49277 14.8669C-0.730146 17.1544 0.930311 19.9168 3.52927 19.9168H17.4707C20.0686 19.9168 21.7301 17.1533 20.5072 14.8669ZM9.71874 7.41676C9.71874 6.98551 10.0687 6.63551 10.5 6.63551C10.9312 6.63551 11.2812 6.98551 11.2812 7.41676V11.5834C11.2812 12.0147 10.9312 12.3647 10.5 12.3647C10.0687 12.3647 9.71874 12.0147 9.71874 11.5834V7.41676ZM10.5208 15.7501C9.94585 15.7501 9.47384 15.2834 9.47384 14.7084C9.47384 14.1334 9.93542 13.6668 10.5104 13.6668H10.5208C11.0969 13.6668 11.5625 14.1334 11.5625 14.7084C11.5625 15.2834 11.0958 15.7501 10.5208 15.7501Z" fill="#F3D221"/>
</svg>
